<?xml version="1.0" encoding="UTF-8"?>
<svg id="Layer_1" data-name="Layer 1" xmlns="http://www.w3.org/2000/svg" viewBox="0 0 293.22 177.98">
  <defs>
    <style>
      .cls-1 {
        fill: none;
      }

      .cls-1, .cls-2 {
        fill-rule: evenodd;
        stroke: #fff;
        stroke-miterlimit: 10;
      }

      .cls-2 {
        fill: #8aca88;
      }
    </style>
  </defs>
  <path class="cls-1" d="m77.2.45s30.39,31.77-30.59,33.82c-12.59.42-30.02,32.81-35.54,35.01"/>
  <path class="cls-1" d="m58.94.32s19.95,24.27-16.95,30c-7.83,1.22-17.58,17.38-26.44,21.16-8.86,3.78-15.93-3.39-14.97-3.56"/>
  <path class="cls-2" d="m286.81,79.31s-8.89,7.89-20.37,5.74c-11.48-2.15-11.07,32.62-10.29,37.78s7.45,32.82-47.27,19.38-54.53,9.48-55.71,14.84c-1.19,5.35-3.22,16.83-1.52,18.92.33.41,8.24.07,8.24.07,0,0-6.87-35.02,28.29-29.27s62.26,16.01,72.73,11.67c10.46-4.34,19-14.06,10.68-33.82-8.32-19.76-8.28-31.67-1.98-32.84,6.3-1.17,18.11-1.21,22.09-3.56s-4.88-8.9-4.88-8.9Z"/>
  <path class="cls-1" d="m287.34,60.39s-9.27,23.32-56.51,14.04c-47.23-9.27-27.82,32.82-47.8,41.34-11.01,4.7-38.97,31.44-39.17,45.3-.19,13.86,1.78,16.62,1.78,16.62"/>
  <path class="cls-1" d="m288.39,32.89s-21.98,33.01-47.47,27.1c-25.5-5.91-73.31-.41-78.46,30.07-5.15,30.48-9.55,39.93-27.1,55.58-8.88,7.93-.01,30.06.79,30.66"/>
  <path class="cls-1" d="m70.15.32s21.5,25.73-26.31,32.18c-11.95,1.61-19.85,19.95-29.34,26.11"/>
</svg>