<?xml version="1.0" encoding="UTF-8"?>
<svg id="Layer_1" data-name="Layer 1" xmlns="http://www.w3.org/2000/svg" viewBox="0 0 294.72 180.41">
  <defs>
    <style>
      .cls-1 {
        fill: #8dbe4e;
        opacity: .5;
      }

      .cls-1, .cls-2 {
        fill-rule: evenodd;
        stroke: #fdfefe;
        stroke-miterlimit: 10;
        stroke-width: .5px;
      }

      .cls-3 {
        fill: #fdfefe;
      }

      .cls-2 {
        fill: none;
      }
    </style>
  </defs>
  <path class="cls-2" d="m76.95.29s30.39,31.77-30.59,33.82c-12.59.42-30.02,32.81-35.54,35.01"/>
  <path class="cls-2" d="m58.69.16s19.95,24.27-16.95,30c-7.83,1.22-17.58,17.38-26.44,21.16-8.86,3.78-15.93-3.39-14.97-3.56"/>
  <path class="cls-1" d="m288.56,79.15s-8.89,7.89-20.37,5.74c-11.48-2.15-11.07,32.62-10.29,37.78s7.45,32.82-47.27,19.38-54.53,9.48-55.71,14.84c-1.19,5.35-3.22,16.83-1.52,18.92.33.41,8.24.07,8.24.07,0,0-6.87-35.02,28.29-29.27,31.33,5.12,60.76,16.63,72.73,11.67,10.46-4.34,19-14.06,10.68-33.82-8.32-19.76-8.28-31.67-1.98-32.84,6.3-1.17,18.11-1.21,22.09-3.56s-4.88-8.9-4.88-8.9Z"/>
  <path class="cls-3" d="m284.19,59.43c.57-1.4-.35.58-.63,1.01-.84,1.28-1.75,2.39-2.87,3.49-4.44,4.37-10.39,6.85-16.39,8.2-11.69,2.62-23.48.83-35.11-1.14-8.04-1.36-17.09-2.01-24.55,1.96-11.34,6.04-11.72,19.58-15.45,30.35-2.05,5.93-5.19,8.01-10.39,10.97-7.66,4.35-14.44,10.76-20.5,17.07-6.77,7.06-14.54,15.67-17.07,25.39-1.32,5.08-.75,10.89-.07,16.04.26,1.99.49,4.52,1.64,6.27,2.12,3.21,7.31.21,5.18-3.03-2.3-3.49-2.17-14.81-.31-19.72,3.33-8.79,10.51-16.41,17.06-22.93,5.86-5.83,12.16-11.4,19.56-15.16,5.14-2.61,8.22-6.73,10.24-12.06,3.7-9.74,3.4-24.47,14.89-28.8,9.45-3.56,20.06.11,29.58,1.3s20.44,1.33,30.15-1.58c8.21-2.46,17.43-7.67,20.83-16.04,1.45-3.57-4.35-5.13-5.79-1.6h0Z"/>
  <path class="cls-2" d="m288.14,32.73s-21.98,33.01-47.47,27.1c-25.5-5.91-73.31-.41-78.46,30.07-5.15,30.48-9.55,39.93-27.1,55.58-8.88,7.93-.01,30.06.79,30.66"/>
  <path class="cls-2" d="m69.9.16s21.5,25.73-26.31,32.18c-11.95,1.61-19.85,19.95-29.34,26.11"/>
</svg>